# xmcd
#
# Track frame offsets:
#	150
#	12495
#	25177
#	39740
#	52245
#	64252
#	77835
#	88567
#	103425
#	113985
#	125217
#	137342
#	150640
#	163862
#	176215
#	187305
#	200527
#	212850
#	229745
#	240087
#	251352
#	266300
#
# Disc length: 3732 seconds
#
# Revision: 0
# Processed by: cddbd v1.4PL0 Copyright (c) Steve Scherf et al.
# Submitted via: dBpowerAMP V4.0
#
DISCID=420e9216
DTITLE=Joe Simon - The Chokin' Kind/Better Than Ever
DYEAR=1969
DGENRE=R&B
TTITLE0=Baby, Don't Be Looking In My Mind
TTITLE1=(Sittin' On The) Dock Of The Bay
TTITLE2=Little Green Apples
TTITLE3=Lonely Man
TTITLE4=The Chokin' Kind
TTITLE5=Yours Love
TTITLE6=Help Yourself (To All My Lovin')
TTITLE7=Wichita Lineman
TTITLE8=Don't Let Me Loose The Feeling
TTITLE9=I'm Too Far Gone To Turn Around
TTITLE10=In The Still Of The Night (I'll Remember)
TTITLE11=Silver Spoons And Coffee Cups
TTITLE12=It's Hard To Get Along
TTITLE13=In The Ghetto
TTITLE14=I Got A Whole Lot Of Lovin'
TTITLE15=Wounded Man
TTITLE16=Time And Space
TTITLE17=Straight Down To Heaven
TTITLE18=When
TTITLE19=After The Lights Go Down Low
TTITLE20=San Francisco Is A Lonely Town
TTITLE21=Rainbow Road
EXTD=
EXTT0=
EXTT1=
EXTT2=
EXTT3=
EXTT4=
EXTT5=
EXTT6=
EXTT7=
EXTT8=
EXTT9=
EXTT10=
EXTT11=
EXTT12=
EXTT13=
EXTT14=
EXTT15=
EXTT16=
EXTT17=
EXTT18=
EXTT19=
EXTT20=
EXTT21=
PLAYORDER=
